<svg version="1.1" id="Layer_1" xmlns="http://www.w3.org/2000/svg" xmlns:xlink="http://www.w3.org/1999/xlink" x="0px" y="0px"
	 width="100%" viewBox="0 0 394 445" enable-background="new 0 0 394 445" xml:space="preserve">
<path fill="#F8FAFB" opacity="1.000000" stroke="none" 
	d="
M395.000000,172.000000 
	C395.000000,263.666656 395.000000,354.833313 395.000000,446.000000 
	C263.666687,446.000000 132.333389,446.000000 1.000060,446.000000 
	C1.000040,297.666718 1.000040,149.333420 1.000020,1.000099 
	C132.333267,1.000066 263.666534,1.000066 394.999908,1.000033 
	C395.000000,57.833332 395.000000,114.666664 395.000000,172.000000 
M127.111244,48.008492 
	C106.490845,48.005802 85.870392,47.974213 65.250084,48.016247 
	C58.127098,48.030766 52.712883,52.071968 52.211704,58.453499 
	C51.709129,64.852791 52.101261,71.322350 52.101261,77.825615 
	C54.371361,77.956802 56.183071,78.061501 57.998165,79.080124 
	C57.665558,86.030663 57.653126,93.014648 56.931328,99.924530 
	C55.576862,112.891151 54.692810,126.001610 51.998634,138.709991 
	C48.506508,155.182297 43.170116,171.254135 39.116940,187.619537 
	C34.706505,205.427460 30.181404,223.254211 26.973637,241.298035 
	C24.349667,256.057983 22.490526,271.129059 22.218151,286.097229 
	C21.551886,322.711487 21.972139,359.346130 22.012821,395.972504 
	C22.031425,412.721985 35.325603,425.966827 52.109570,425.989044 
	C79.745796,426.025604 107.382118,425.992462 135.951797,425.993866 
	C143.949066,425.995911 151.946320,426.004944 159.943588,425.998566 
	C176.598923,425.985291 190.089890,412.566071 189.978729,395.875061 
	C189.711578,355.762299 189.541931,315.646820 188.868652,275.540222 
	C188.680374,264.324738 187.472824,253.040375 185.688278,241.955780 
	C182.077454,219.527512 176.243820,197.615372 169.195190,175.994324 
	C158.843384,144.241043 154.215393,111.530281 154.895203,78.025307 
	C156.491592,78.025307 158.087997,78.025307 160.001038,78.025307 
	C160.001038,76.478195 160.001495,75.503883 160.000977,74.529564 
	C159.998184,69.367271 160.172028,64.197235 159.946289,59.044708 
	C159.679855,52.963001 154.695312,48.161140 148.518036,48.042847 
	C141.696793,47.912228 134.869476,48.100048 127.111244,48.008492 
M321.080688,47.999908 
	C299.798004,48.000080 278.515228,47.971863 257.232635,48.016342 
	C250.110367,48.031227 244.706360,52.079754 244.209183,58.468147 
	C243.711197,64.867172 244.099808,71.335197 244.099808,77.830513 
	C246.372650,77.960014 248.185104,78.063286 249.999100,79.080437 
	C249.666168,86.030983 249.653229,93.014954 248.931335,99.924873 
	C247.576691,112.891449 246.692764,126.001907 243.998596,138.710251 
	C240.506485,155.182541 235.170074,171.254349 231.116898,187.619736 
	C226.706467,205.427643 222.181351,223.254333 218.973572,241.298141 
	C216.349594,256.058044 214.490509,271.129120 214.218124,286.097260 
	C213.551849,322.711487 213.972046,359.346039 214.012756,395.972382 
	C214.031372,412.721954 227.325577,425.966827 244.109329,425.989044 
	C271.745544,426.025604 299.381805,425.992615 327.951538,425.994049 
	C335.948792,425.996033 343.946014,426.004852 351.943268,425.998566 
	C368.598633,425.985443 382.090149,412.565704 381.978882,395.875519 
	C381.711456,355.762787 381.541992,315.647339 380.868683,275.540771 
	C380.680420,264.325317 379.473022,253.040939 377.688416,241.956390 
	C374.077576,219.528122 368.245422,197.615509 361.195068,175.994980 
	C350.840576,144.241959 346.221924,111.529633 346.890381,78.026009 
	C348.487915,78.026009 350.085449,78.026009 351.995758,78.026009 
	C351.995758,71.310318 352.175018,65.161552 351.945068,59.028133 
	C351.717133,52.948956 346.686920,48.166859 340.496796,48.039650 
	C334.337433,47.913071 328.171661,48.099041 321.080688,47.999908 
z"/>
<path fill="#EBF5FC" opacity="1.000000" stroke="none" 
	d="
M135.018402,425.988708 
	C107.382118,425.992462 79.745796,426.025604 52.109570,425.989044 
	C35.325603,425.966827 22.031425,412.721985 22.012821,395.972504 
	C21.972139,359.346130 21.551886,322.711487 22.218151,286.097229 
	C22.490526,271.129059 24.349667,256.057983 26.973637,241.298035 
	C30.181404,223.254211 34.706505,205.427460 39.116940,187.619537 
	C43.170116,171.254135 48.506508,155.182297 51.998634,138.709991 
	C54.692810,126.001610 55.576862,112.891151 56.931328,99.924530 
	C57.653126,93.014648 57.665558,86.030663 58.453003,78.553909 
	C62.601837,78.073639 66.295830,78.119583 69.993088,78.622299 
	C69.962769,83.893379 70.186859,88.726135 69.843857,93.518303 
	C69.043648,104.698067 67.970779,115.858315 66.832138,127.375412 
	C62.009285,146.905289 58.471077,166.440048 52.484585,185.193268 
	C40.140240,223.862991 33.824936,263.262970 33.979500,303.796509 
	C34.093243,333.624603 33.998512,363.453430 34.003422,393.281952 
	C34.005669,406.922455 41.003723,413.982208 54.512016,413.998413 
	C87.338554,414.037811 120.165085,414.078339 152.951126,414.457581 
	C151.734253,416.129639 150.800430,417.895599 149.336700,418.715363 
	C144.669876,421.328979 139.806107,423.590912 135.018402,425.988708 
z"/>
<path fill="#EBF5FD" opacity="1.000000" stroke="none" 
	d="
M327.018066,425.988922 
	C299.381805,425.992615 271.745544,426.025604 244.109329,425.989044 
	C227.325577,425.966827 214.031372,412.721954 214.012756,395.972382 
	C213.972046,359.346039 213.551849,322.711487 214.218124,286.097260 
	C214.490509,271.129120 216.349594,256.058044 218.973572,241.298141 
	C222.181351,223.254333 226.706467,205.427643 231.116898,187.619736 
	C235.170074,171.254349 240.506485,155.182541 243.998596,138.710251 
	C246.692764,126.001907 247.576691,112.891449 248.931335,99.924873 
	C249.653229,93.014954 249.666168,86.030983 250.454636,78.553635 
	C254.604538,78.073334 258.298920,78.119835 261.995361,78.623154 
	C261.963654,83.892708 262.188110,88.723991 261.844208,93.514473 
	C261.041901,104.690544 259.966309,115.846992 258.836090,127.366348 
	C255.736755,141.140350 253.172012,154.653412 249.784256,167.956894 
	C244.389069,189.143433 238.058441,210.095276 232.845261,231.323639 
	C227.848450,251.671005 226.313354,272.559357 226.096207,293.446075 
	C225.748184,326.920868 225.997925,360.401917 226.003159,393.880341 
	C226.005173,406.780212 233.197586,413.987762 246.061142,413.997925 
	C279.039368,414.023956 312.017609,414.045746 344.841431,414.360962 
	C340.200653,420.618591 333.975433,423.874359 327.018066,425.988922 
z"/>
<path fill="#DCEDF9" opacity="1.000000" stroke="none" 
	d="
M135.485107,425.991272 
	C139.806107,423.590912 144.669876,421.328979 149.336700,418.715363 
	C150.800430,417.895599 151.734253,416.129639 153.287750,414.410767 
	C154.115402,413.980377 154.565918,413.935944 155.457123,413.930664 
	C169.761917,414.085999 178.062973,407.423584 177.916718,395.229645 
	C177.389877,351.305786 180.233521,307.292816 175.799805,263.482635 
	C174.003571,245.733673 170.659622,228.034485 166.572769,210.652924 
	C162.095047,191.608963 155.893677,172.972794 150.556595,154.126892 
	C148.854645,148.117126 147.513977,142.005066 146.006561,135.493073 
	C145.975464,132.884918 146.279587,130.656845 145.863342,128.572632 
	C142.537476,111.919495 141.893982,95.075157 142.466309,78.096924 
	C146.619110,78.073631 150.316330,78.120201 154.013565,78.166771 
	C154.215393,111.530281 158.843384,144.241043 169.195190,175.994324 
	C176.243820,197.615372 182.077454,219.527512 185.688278,241.955780 
	C187.472824,253.040375 188.680374,264.324738 188.868652,275.540222 
	C189.541931,315.646820 189.711578,355.762299 189.978729,395.875061 
	C190.089890,412.566071 176.598923,425.985291 159.943588,425.998566 
	C151.946320,426.004944 143.949066,425.995911 135.485107,425.991272 
z"/>
<path fill="#DCEDFA" opacity="1.000000" stroke="none" 
	d="
M327.484802,425.991486 
	C333.975433,423.874359 340.200653,420.618591 345.100525,414.326660 
	C345.687195,413.981842 345.860352,413.962982 346.483337,413.963806 
	C361.902313,415.438782 370.966034,406.673309 370.140533,390.894775 
	C369.454285,377.778259 370.108154,364.596161 369.978699,351.445007 
	C369.656769,318.735321 371.999481,285.876953 366.812164,253.403992 
	C363.685638,233.831558 359.022034,214.479904 354.439972,195.173599 
	C351.459167,182.613907 347.324615,170.330597 343.819000,157.891891 
	C341.767578,150.613144 339.936340,143.272339 338.004944,135.511108 
	C337.975372,132.900681 338.282196,130.671585 337.865417,128.587143 
	C334.535065,111.929695 333.911377,95.078987 334.462769,78.097145 
	C338.615082,78.073784 342.311676,78.120605 346.008301,78.167427 
	C346.221924,111.529633 350.840576,144.241959 361.195068,175.994980 
	C368.245422,197.615509 374.077576,219.528122 377.688416,241.956390 
	C379.473022,253.040939 380.680420,264.325317 380.868683,275.540771 
	C381.541992,315.647339 381.711456,355.762787 381.978882,395.875519 
	C382.090149,412.565704 368.598633,425.985443 351.943268,425.998566 
	C343.946014,426.004852 335.948792,425.996033 327.484802,425.991486 
z"/>
<path fill="#DC3D42" opacity="1.000000" stroke="none" 
	d="
M261.993286,78.166344 
	C258.298920,78.119835 254.604538,78.073334 250.453857,78.096687 
	C248.185104,78.063286 246.372650,77.960014 244.099808,77.830513 
	C244.099808,71.335197 243.711197,64.867172 244.209183,58.468147 
	C244.706360,52.079754 250.110367,48.031227 257.232635,48.016342 
	C278.515228,47.971863 299.798004,48.000080 321.584412,48.413036 
	C328.084351,54.120140 328.552338,61.056683 328.036987,68.365036 
	C327.815460,71.506828 328.007080,74.677765 327.553772,77.903473 
	C323.395447,78.036507 319.694305,78.101517 315.529602,78.097076 
	C297.375092,78.073868 279.684204,78.120110 261.993286,78.166344 
z"/>
<path fill="#8C6445" opacity="1.000000" stroke="none" 
	d="
M69.989822,78.165535 
	C66.295830,78.119583 62.601837,78.073639 58.451313,78.096939 
	C56.183071,78.061501 54.371361,77.956802 52.101261,77.825615 
	C52.101261,71.322350 51.709129,64.852791 52.211704,58.453499 
	C52.712883,52.071968 58.127098,48.030766 65.250084,48.016247 
	C85.870392,47.974213 106.490845,48.005802 127.785309,48.327412 
	C133.870758,51.908638 136.502594,56.509579 136.066025,63.004700 
	C135.735168,67.927361 136.011856,72.890854 135.560242,77.902489 
	C131.397903,78.034492 127.693497,78.100189 123.525620,78.097534 
	C105.371368,78.074638 87.680595,78.120087 69.989822,78.165535 
z"/>
<path fill="#75543A" opacity="1.000000" stroke="none" 
	d="
M136.018188,77.836174 
	C136.011856,72.890854 135.735168,67.927361 136.066025,63.004700 
	C136.502594,56.509579 133.870758,51.908638 128.252090,48.397751 
	C134.869476,48.100048 141.696793,47.912228 148.518036,48.042847 
	C154.695312,48.161140 159.679855,52.963001 159.946289,59.044708 
	C160.172028,64.197235 159.998184,69.367271 160.000977,74.529564 
	C160.001495,75.503883 160.001038,76.478195 160.001038,78.025307 
	C158.087997,78.025307 156.491592,78.025307 154.454376,78.096039 
	C150.316330,78.120201 146.619110,78.073631 142.042145,78.028465 
	C139.447662,77.965302 137.732925,77.900742 136.018188,77.836174 
z"/>
<path fill="#D23237" opacity="1.000000" stroke="none" 
	d="
M328.011017,77.835464 
	C328.007080,74.677765 327.815460,71.506828 328.036987,68.365036 
	C328.552338,61.056683 328.084351,54.120140 322.048431,48.487064 
	C328.171661,48.099041 334.337433,47.913071 340.496796,48.039650 
	C346.686920,48.166859 351.717133,52.948956 351.945068,59.028133 
	C352.175018,65.161552 351.995758,71.310318 351.995758,78.026009 
	C350.085449,78.026009 348.487915,78.026009 346.449341,78.096718 
	C342.311676,78.120605 338.615082,78.073784 334.038452,78.027939 
	C331.442657,77.964432 329.726837,77.899948 328.011017,77.835464 
z"/>
<path fill="#D9C19F" opacity="1.000000" stroke="none" 
	d="
M155.016449,413.891510 
	C154.565918,413.935944 154.115402,413.980377 153.328247,414.071625 
	C120.165085,414.078339 87.338554,414.037811 54.512016,413.998413 
	C41.003723,413.982208 34.005669,406.922455 34.003422,393.281952 
	C33.998512,363.453430 34.093243,333.624603 33.979500,303.796509 
	C33.824936,263.262970 40.140240,223.862991 52.484585,185.193268 
	C58.471077,166.440048 62.009285,146.905289 67.212784,127.328407 
	C81.389290,121.713425 94.127014,122.974831 105.932610,131.917770 
	C113.011826,137.280396 120.852737,140.572388 130.235291,139.901855 
	C130.664078,139.989761 130.835434,140.024826 131.004456,140.496948 
	C131.526413,144.687576 131.657150,148.547638 132.639557,152.177200 
	C138.515686,173.886856 144.878098,195.468384 150.509750,217.239731 
	C155.734818,237.439255 158.597336,258.047394 158.623016,278.929810 
	C145.935883,274.454895 133.623093,270.002594 120.901947,265.402588 
	C116.668068,276.930420 112.634972,287.911560 108.518753,299.118988 
	C97.026711,294.967499 86.116684,291.026245 74.729622,286.912659 
	C65.101875,313.333282 55.573685,339.480743 45.944263,365.905975 
	C72.590828,375.554596 98.614784,384.977783 124.972870,394.521942 
	C130.336197,379.820953 135.378601,365.908691 140.487061,352.020752 
	C146.516312,335.629608 152.602692,319.259491 159.010651,303.144165 
	C159.571335,305.353394 159.968826,307.298492 159.972198,309.244232 
	C160.014618,333.645386 159.870544,358.047668 160.059280,382.447449 
	C160.142944,393.263580 160.352402,403.992737 155.016449,413.891510 
M90.496429,275.999390 
	C95.584076,275.999390 100.671715,275.999390 105.684296,275.999390 
	C105.684296,259.609650 105.684296,244.028503 105.684296,228.404129 
	C89.667007,228.404129 73.968071,228.404129 58.315880,228.404129 
	C58.315880,244.390869 58.315880,259.972321 58.315880,275.999390 
	C68.916321,275.999390 79.207176,275.999390 90.496429,275.999390 
z"/>
<path fill="#DCEDFA" opacity="1.000000" stroke="none" 
	d="
M129.977844,139.848999 
	C120.852737,140.572388 113.011826,137.280396 105.932610,131.917770 
	C94.127014,122.974831 81.389290,121.713425 67.389008,126.979462 
	C67.970779,115.858315 69.043648,104.698067 69.843857,93.518303 
	C70.186859,88.726135 69.962769,83.893379 69.993088,78.622299 
	C87.680595,78.120087 105.371368,78.074638 123.529114,78.554398 
	C124.330704,86.814697 124.274033,94.591270 125.088669,102.275467 
	C126.419792,114.831635 128.318558,127.327621 129.977844,139.848999 
z"/>
<path fill="#F1BBE5" opacity="1.000000" stroke="none" 
	d="
M346.033508,413.944122 
	C345.860352,413.962982 345.687195,413.981842 345.254944,414.034973 
	C312.017609,414.045746 279.039368,414.023956 246.061142,413.997925 
	C233.197586,413.987762 226.005173,406.780212 226.003159,393.880341 
	C225.997925,360.401917 225.748184,326.920868 226.096207,293.446075 
	C226.313354,272.559357 227.848450,251.671005 232.845261,231.323639 
	C238.058441,210.095276 244.389069,189.143433 249.784256,167.956894 
	C253.172012,154.653412 255.736755,141.140350 259.214539,127.321304 
	C273.491058,121.508766 286.303131,123.050743 298.096497,132.052353 
	C305.171051,137.452225 313.093628,140.253235 322.028076,140.460114 
	C327.377167,160.164337 333.265198,179.345367 337.918945,198.821320 
	C342.293610,217.129318 345.671448,235.695648 348.885132,254.252701 
	C350.572754,263.997742 351.172424,273.952515 351.849670,283.840881 
	C352.124664,287.856232 351.299500,291.946869 350.804626,295.682220 
	C346.675232,281.413513 337.286530,272.709320 323.865265,268.181366 
	C318.751648,266.456207 313.386261,265.477356 308.586212,264.124084 
	C311.034119,264.059174 313.032135,264.053162 315.028595,263.993927 
	C327.687775,263.618561 337.842773,255.245529 339.551361,242.681381 
	C340.454254,236.041779 339.711090,229.178329 339.711090,222.354324 
	C321.883606,221.001816 304.726746,220.420258 297.852173,242.999207 
	C294.406982,230.925644 287.648865,223.979706 276.709198,222.455536 
	C270.072968,221.530945 263.202881,222.285141 255.999847,222.285141 
	C255.999847,227.835449 255.942566,233.125351 256.010803,238.413651 
	C256.198151,252.931717 266.718567,263.586182 281.158051,264.027893 
	C283.083160,264.086761 284.997040,264.513153 286.498840,264.834320 
	C283.619110,265.291748 281.122589,265.537567 278.699432,266.099457 
	C254.850449,271.630005 241.996155,288.533630 244.178711,311.942291 
	C245.710510,328.371460 252.176132,342.831726 263.415222,354.906372 
	C284.709473,377.783600 311.138123,377.740112 332.568726,354.982697 
	C341.931152,345.040649 347.377777,333.008118 351.216064,320.270691 
	C351.685547,322.354675 351.977173,324.156067 351.979614,325.957886 
	C352.010651,348.747528 351.952637,371.537354 352.027710,394.326782 
	C352.051453,401.532532 350.221130,408.073792 346.033508,413.944122 
z"/>
<path fill="#DCEDFA" opacity="1.000000" stroke="none" 
	d="
M322.028076,140.065689 
	C313.093628,140.253235 305.171051,137.452225 298.096497,132.052353 
	C286.303131,123.050743 273.491058,121.508766 259.379883,126.966354 
	C259.966309,115.846992 261.041901,104.690544 261.844208,93.514473 
	C262.188110,88.723991 261.963654,83.892708 261.995361,78.623154 
	C279.684204,78.120110 297.375092,78.073868 315.531738,78.554062 
	C316.331573,86.494789 316.299377,93.947929 317.080719,101.314781 
	C318.449066,114.216316 320.316681,127.064888 321.990173,139.967407 
	C322.005249,139.999176 322.028076,140.065689 322.028076,140.065689 
z"/>
<path fill="#D4B997" opacity="1.000000" stroke="none" 
	d="
M158.997375,278.952393 
	C158.597336,258.047394 155.734818,237.439255 150.509750,217.239731 
	C144.878098,195.468384 138.515686,173.886856 132.639557,152.177200 
	C131.657150,148.547638 131.526413,144.687576 131.419510,140.457825 
	C136.560593,138.634354 141.284302,137.287079 146.008011,135.939804 
	C147.513977,142.005066 148.854645,148.117126 150.556595,154.126892 
	C155.893677,172.972794 162.095047,191.608963 166.572769,210.652924 
	C170.659622,228.034485 174.003571,245.733673 175.799805,263.482635 
	C180.233521,307.292816 177.389877,351.305786 177.916718,395.229645 
	C178.062973,407.423584 169.761917,414.085999 155.457123,413.930664 
	C160.352402,403.992737 160.142944,393.263580 160.059280,382.447449 
	C159.870544,358.047668 160.014618,333.645386 159.972198,309.244232 
	C159.968826,307.298492 159.571335,305.353394 159.062134,302.761078 
	C160.240585,297.931610 161.614304,293.710663 163.208984,289.574921 
	C166.070251,282.154419 166.125748,282.175812 158.997375,278.952393 
z"/>
<path fill="#CDE6F5" opacity="1.000000" stroke="none" 
	d="
M146.006561,135.493073 
	C141.284302,137.287079 136.560593,138.634354 131.421829,140.020752 
	C130.835434,140.024826 130.664078,139.989761 130.235291,139.901855 
	C128.318558,127.327621 126.419792,114.831635 125.088669,102.275467 
	C124.274033,94.591270 124.330704,86.814697 123.992592,78.622742 
	C127.693497,78.100189 131.397903,78.034492 135.560242,77.902489 
	C137.732925,77.900742 139.447662,77.965302 141.586578,78.098328 
	C141.893982,95.075157 142.537476,111.919495 145.863342,128.572632 
	C146.279587,130.656845 145.975464,132.884918 146.006561,135.493073 
z"/>
<path fill="#EFADE1" opacity="1.000000" stroke="none" 
	d="
M346.483337,413.963806 
	C350.221130,408.073792 352.051453,401.532532 352.027710,394.326782 
	C351.952637,371.537354 352.010651,348.747528 351.979614,325.957886 
	C351.977173,324.156067 351.685547,322.354675 351.191833,319.838867 
	C350.895172,311.417511 350.935028,303.710388 350.974915,296.003265 
	C351.299500,291.946869 352.124664,287.856232 351.849670,283.840881 
	C351.172424,273.952515 350.572754,263.997742 348.885132,254.252701 
	C345.671448,235.695648 342.293610,217.129318 337.918945,198.821320 
	C333.265198,179.345367 327.377167,160.164337 322.028076,140.460114 
	C322.028076,140.065689 322.005249,139.999176 322.421692,139.985580 
	C327.894073,138.634476 332.950073,137.296967 338.006042,135.959442 
	C339.936340,143.272339 341.767578,150.613144 343.819000,157.891891 
	C347.324615,170.330597 351.459167,182.613907 354.439972,195.173599 
	C359.022034,214.479904 363.685638,233.831558 366.812164,253.403992 
	C371.999481,285.876953 369.656769,318.735321 369.978699,351.445007 
	C370.108154,364.596161 369.454285,377.778259 370.140533,390.894775 
	C370.966034,406.673309 361.902313,415.438782 346.483337,413.963806 
z"/>
<path fill="#CDE6F5" opacity="1.000000" stroke="none" 
	d="
M338.004944,135.511108 
	C332.950073,137.296967 327.894073,138.634476 322.406616,139.953827 
	C320.316681,127.064888 318.449066,114.216316 317.080719,101.314781 
	C316.299377,93.947929 316.331573,86.494789 315.995331,78.623512 
	C319.694305,78.101517 323.395447,78.036507 327.553772,77.903481 
	C329.726837,77.899948 331.442657,77.964432 333.582764,78.098122 
	C333.911377,95.078987 334.535065,111.929695 337.865417,128.587143 
	C338.282196,130.671585 337.975372,132.900681 338.004944,135.511108 
z"/>
<path fill="#76543A" opacity="1.000000" stroke="none" 
	d="
M158.623016,278.929810 
	C166.125748,282.175812 166.070251,282.154419 163.208984,289.574921 
	C161.614304,293.710663 160.240585,297.931610 158.715790,302.497192 
	C152.602692,319.259491 146.516312,335.629608 140.487061,352.020752 
	C135.378601,365.908691 130.336197,379.820953 124.972870,394.521942 
	C98.614784,384.977783 72.590828,375.554596 45.944263,365.905975 
	C55.573685,339.480743 65.101875,313.333282 74.729622,286.912659 
	C86.116684,291.026245 97.026711,294.967499 108.518753,299.118988 
	C112.634972,287.911560 116.668068,276.930420 120.901947,265.402588 
	C133.623093,270.002594 145.935883,274.454895 158.623016,278.929810 
M121.815063,298.238434 
	C121.250526,299.908813 120.685997,301.579193 120.067375,303.409637 
	C127.670059,306.100952 134.794357,308.622894 142.326126,311.289124 
	C144.840225,304.528503 147.319580,298.244965 149.414124,291.835693 
	C149.747238,290.816315 148.672043,288.427582 147.700851,288.038879 
	C141.462784,285.542328 135.072281,283.426758 128.208481,281.001099 
	C126.061165,286.708344 124.033188,292.098450 121.815063,298.238434 
M100.443787,308.987030 
	C95.298676,307.160095 90.195404,305.194824 84.975136,303.616455 
	C83.856224,303.278137 81.427490,303.993927 81.106827,304.813110 
	C78.594521,311.231201 76.448975,317.792847 74.058899,324.689392 
	C80.427254,327.103424 86.366936,329.601501 92.494377,331.490570 
	C93.887955,331.920227 96.950424,330.692566 97.499161,329.454224 
	C99.832909,324.187561 101.677032,318.678345 103.278633,313.135925 
	C103.576607,312.104767 101.936203,310.513458 100.443787,308.987030 
M113.193039,321.740540 
	C111.763367,325.792053 110.167870,329.797180 109.012489,333.925476 
	C108.696144,335.055786 109.341194,337.405975 110.154869,337.748718 
	C115.783081,340.119446 121.538963,342.209656 127.343887,344.115753 
	C128.291275,344.426819 130.441483,343.686646 130.751266,342.916016 
	C133.320602,336.524200 135.587860,330.010956 138.120224,323.057251 
	C132.501892,320.897461 127.335068,318.814392 122.098984,316.923065 
	C115.671974,314.601593 115.646950,314.670868 113.193039,321.740540 
M124.770401,356.987732 
	C118.346321,354.427460 111.961258,351.756226 105.442825,349.464233 
	C104.724823,349.211792 102.710144,350.905090 102.208374,352.083954 
	C100.132355,356.961182 98.149033,361.915009 96.715889,367.005188 
	C96.306274,368.460052 97.409401,371.538635 98.596947,372.043915 
	C104.656288,374.621979 110.970558,376.600891 117.888329,379.032928 
	C120.293335,371.785156 122.620979,364.770538 124.770401,356.987732 
M88.003098,355.488190 
	C89.282104,351.934021 90.561111,348.379852 91.964050,344.481293 
	C85.457809,342.086945 79.245514,339.843170 73.068581,337.505920 
	C70.740005,336.624817 69.398781,337.079437 68.584938,339.613861 
	C67.523834,342.918304 66.037071,346.083252 64.861115,349.354126 
	C61.033955,359.999176 60.378246,358.616669 70.037315,361.576416 
	C71.773598,362.108459 73.411186,362.954529 75.131157,363.549133 
	C83.568253,366.465851 83.570938,366.452423 86.979202,358.059052 
	C87.228859,357.444244 87.528824,356.849854 88.003098,355.488190 
z"/>
<path fill="#755339" opacity="1.000000" stroke="none" 
	d="
M89.997231,275.999390 
	C79.207176,275.999390 68.916321,275.999390 58.315880,275.999390 
	C58.315880,259.972321 58.315880,244.390869 58.315880,228.404129 
	C73.968071,228.404129 89.667007,228.404129 105.684296,228.404129 
	C105.684296,244.028503 105.684296,259.609650 105.684296,275.999390 
	C100.671715,275.999390 95.584076,275.999390 89.997231,275.999390 
M90.258354,240.001938 
	C84.778709,240.001953 79.296852,240.094131 73.820358,239.962784 
	C71.115028,239.897873 69.883476,240.738831 69.960106,243.633621 
	C70.109459,249.275375 70.086990,254.925537 69.970222,260.568756 
	C69.915955,263.191559 71.004013,264.073608 73.523911,264.027374 
	C79.167686,263.923828 84.815918,263.925690 90.459778,264.026886 
	C92.962372,264.071747 94.083427,263.223785 94.029747,260.585114 
	C93.911552,254.775787 94.132584,248.955872 93.863983,243.156555 
	C93.813660,242.070053 92.127441,241.059341 90.258354,240.001938 
z"/>
<path fill="#DC3E43" opacity="1.000000" stroke="none" 
	d="
M350.804626,295.682220 
	C350.935028,303.710388 350.895172,311.417511 350.879578,319.556458 
	C347.377777,333.008118 341.931152,345.040649 332.568726,354.982697 
	C311.138123,377.740112 284.709473,377.783600 263.415222,354.906372 
	C252.176132,342.831726 245.710510,328.371460 244.178711,311.942291 
	C241.996155,288.533630 254.850449,271.630005 278.699432,266.099457 
	C281.122589,265.537567 283.619110,265.291748 286.924927,264.921631 
	C292.515625,264.640747 297.260498,264.287628 302.011353,264.057648 
	C304.046387,263.959167 306.093811,264.117035 308.135620,264.158386 
	C313.386261,265.477356 318.751648,266.456207 323.865265,268.181366 
	C337.286530,272.709320 346.675232,281.413513 350.804626,295.682220 
M267.615051,305.957245 
	C272.685181,304.738983 275.327545,301.684265 273.463043,298.343109 
	C272.384399,296.410248 269.567017,294.395325 267.515839,294.378265 
	C265.759155,294.363617 263.090118,296.823334 262.403015,298.751251 
	C261.147430,302.274384 263.435364,304.672485 267.615051,305.957245 
M329.145355,305.847809 
	C334.449799,303.031921 335.731384,298.169708 331.572815,295.518799 
	C329.954529,294.487183 326.860168,294.232208 325.274475,295.118988 
	C323.672943,296.014618 322.234161,298.784027 322.280518,300.694824 
	C322.362061,304.055176 324.913483,305.848541 329.145355,305.847809 
M302.450745,309.903656 
	C304.647369,305.342896 303.800171,301.829895 300.008850,300.498505 
	C296.370239,299.220734 293.475922,300.721161 292.580200,304.188293 
	C292.104980,306.027863 292.964203,309.571777 294.260864,310.199951 
	C296.356689,311.215332 299.310120,310.460449 302.450745,309.903656 
M285.591156,325.889038 
	C286.558990,322.460632 285.397369,319.561279 282.123535,318.743713 
	C280.142639,318.249115 277.079529,319.020081 275.569641,320.394531 
	C273.016815,322.718414 273.556122,325.897125 276.028412,328.335388 
	C278.799805,331.068604 281.933502,330.399506 285.591156,325.889038 
M311.542511,320.090576 
	C309.352417,324.650726 310.200836,328.163513 313.987030,329.498932 
	C317.631012,330.784210 320.515656,329.265015 321.414276,325.807068 
	C321.891785,323.969635 321.032471,320.423248 319.736969,319.796265 
	C317.638947,318.780823 314.684906,319.534058 311.542511,320.090576 
M303.245636,344.572632 
	C304.964813,340.466522 303.374359,337.594849 299.471466,336.361847 
	C295.851349,335.218140 292.919983,337.182343 292.431152,340.697021 
	C292.158997,342.653839 293.542267,345.558777 295.136139,346.897156 
	C297.856506,349.181488 300.735779,347.931305 303.245636,344.572632 
z"/>
<path fill="#68A739" opacity="1.000000" stroke="none" 
	d="
M308.586212,264.124084 
	C306.093811,264.117035 304.046387,263.959167 302.011353,264.057648 
	C297.260498,264.287628 292.515625,264.640747 287.342224,264.856689 
	C284.997040,264.513153 283.083160,264.086761 281.158051,264.027893 
	C266.718567,263.586182 256.198151,252.931717 256.010803,238.413651 
	C255.942566,233.125351 255.999847,227.835449 255.999847,222.285141 
	C263.202881,222.285141 270.072968,221.530945 276.709198,222.455536 
	C287.648865,223.979706 294.406982,230.925644 297.852173,242.999207 
	C304.726746,220.420258 321.883606,221.001816 339.711090,222.354324 
	C339.711090,229.178329 340.454254,236.041779 339.551361,242.681381 
	C337.842773,255.245529 327.687775,263.618561 315.028595,263.993927 
	C313.032135,264.053162 311.034119,264.059174 308.586212,264.124084 
z"/>
<path fill="#8C6445" opacity="1.000000" stroke="none" 
	d="
M121.910133,297.863464 
	C124.033188,292.098450 126.061165,286.708344 128.208481,281.001099 
	C135.072281,283.426758 141.462784,285.542328 147.700851,288.038879 
	C148.672043,288.427582 149.747238,290.816315 149.414124,291.835693 
	C147.319580,298.244965 144.840225,304.528503 142.326126,311.289124 
	C134.794357,308.622894 127.670059,306.100952 120.067375,303.409637 
	C120.685997,301.579193 121.250526,299.908813 121.910133,297.863464 
z"/>
<path fill="#8C6445" opacity="1.000000" stroke="none" 
	d="
M100.817078,309.083862 
	C101.936203,310.513458 103.576607,312.104767 103.278633,313.135925 
	C101.677032,318.678345 99.832909,324.187561 97.499161,329.454224 
	C96.950424,330.692566 93.887955,331.920227 92.494377,331.490570 
	C86.366936,329.601501 80.427254,327.103424 74.058899,324.689392 
	C76.448975,317.792847 78.594521,311.231201 81.106827,304.813110 
	C81.427490,303.993927 83.856224,303.278137 84.975136,303.616455 
	C90.195404,305.194824 95.298676,307.160095 100.817078,309.083862 
z"/>
<path fill="#8C6445" opacity="1.000000" stroke="none" 
	d="
M113.339111,321.383484 
	C115.646950,314.670868 115.671974,314.601593 122.098984,316.923065 
	C127.335068,318.814392 132.501892,320.897461 138.120224,323.057251 
	C135.587860,330.010956 133.320602,336.524200 130.751266,342.916016 
	C130.441483,343.686646 128.291275,344.426819 127.343887,344.115753 
	C121.538963,342.209656 115.783081,340.119446 110.154869,337.748718 
	C109.341194,337.405975 108.696144,335.055786 109.012489,333.925476 
	C110.167870,329.797180 111.763367,325.792053 113.339111,321.383484 
z"/>
<path fill="#8C6445" opacity="1.000000" stroke="none" 
	d="
M124.859512,357.371826 
	C122.620979,364.770538 120.293335,371.785156 117.888329,379.032928 
	C110.970558,376.600891 104.656288,374.621979 98.596947,372.043915 
	C97.409401,371.538635 96.306274,368.460052 96.715889,367.005188 
	C98.149033,361.915009 100.132355,356.961182 102.208374,352.083954 
	C102.710144,350.905090 104.724823,349.211792 105.442825,349.464233 
	C111.961258,351.756226 118.346321,354.427460 124.859512,357.371826 
z"/>
<path fill="#8C6445" opacity="1.000000" stroke="none" 
	d="
M87.904251,355.867065 
	C87.528824,356.849854 87.228859,357.444244 86.979202,358.059052 
	C83.570938,366.452423 83.568253,366.465851 75.131157,363.549133 
	C73.411186,362.954529 71.773598,362.108459 70.037315,361.576416 
	C60.378246,358.616669 61.033955,359.999176 64.861115,349.354126 
	C66.037071,346.083252 67.523834,342.918304 68.584938,339.613861 
	C69.398781,337.079437 70.740005,336.624817 73.068581,337.505920 
	C79.245514,339.843170 85.457809,342.086945 91.964050,344.481293 
	C90.561111,348.379852 89.282104,351.934021 87.904251,355.867065 
z"/>
<path fill="#8C6445" opacity="1.000000" stroke="none" 
	d="
M90.727249,240.007797 
	C92.127441,241.059341 93.813660,242.070053 93.863983,243.156555 
	C94.132584,248.955872 93.911552,254.775787 94.029747,260.585114 
	C94.083427,263.223785 92.962372,264.071747 90.459778,264.026886 
	C84.815918,263.925690 79.167686,263.923828 73.523911,264.027374 
	C71.004013,264.073608 69.915955,263.191559 69.970222,260.568756 
	C70.086990,254.925537 70.109459,249.275375 69.960106,243.633621 
	C69.883476,240.738831 71.115028,239.897873 73.820358,239.962784 
	C79.296852,240.094131 84.778709,240.001953 90.727249,240.007797 
z"/>
<path fill="#F6DC65" opacity="1.000000" stroke="none" 
	d="
M267.234863,305.902832 
	C263.435364,304.672485 261.147430,302.274384 262.403015,298.751251 
	C263.090118,296.823334 265.759155,294.363617 267.515839,294.378265 
	C269.567017,294.395325 272.384399,296.410248 273.463043,298.343109 
	C275.327545,301.684265 272.685181,304.738983 267.234863,305.902832 
z"/>
<path fill="#F6DC65" opacity="1.000000" stroke="none" 
	d="
M328.765259,305.902405 
	C324.913483,305.848541 322.362061,304.055176 322.280518,300.694824 
	C322.234161,298.784027 323.672943,296.014618 325.274475,295.118988 
	C326.860168,294.232208 329.954529,294.487183 331.572815,295.518799 
	C335.731384,298.169708 334.449799,303.031921 328.765259,305.902405 
z"/>
<path fill="#F6DC65" opacity="1.000000" stroke="none" 
	d="
M302.176086,310.178406 
	C299.310120,310.460449 296.356689,311.215332 294.260864,310.199951 
	C292.964203,309.571777 292.104980,306.027863 292.580200,304.188293 
	C293.475922,300.721161 296.370239,299.220734 300.008850,300.498505 
	C303.800171,301.829895 304.647369,305.342896 302.176086,310.178406 
z"/>
<path fill="#F6DC65" opacity="1.000000" stroke="none" 
	d="
M285.417633,326.233215 
	C281.933502,330.399506 278.799805,331.068604 276.028412,328.335388 
	C273.556122,325.897125 273.016815,322.718414 275.569641,320.394531 
	C277.079529,319.020081 280.142639,318.249115 282.123535,318.743713 
	C285.397369,319.561279 286.558990,322.460632 285.417633,326.233215 
z"/>
<path fill="#F6DC65" opacity="1.000000" stroke="none" 
	d="
M311.817413,319.815552 
	C314.684906,319.534058 317.638947,318.780823 319.736969,319.796265 
	C321.032471,320.423248 321.891785,323.969635 321.414276,325.807068 
	C320.515656,329.265015 317.631012,330.784210 313.987030,329.498932 
	C310.200836,328.163513 309.352417,324.650726 311.817413,319.815552 
z"/>
<path fill="#F6DC65" opacity="1.000000" stroke="none" 
	d="
M303.070618,344.919556 
	C300.735779,347.931305 297.856506,349.181488 295.136139,346.897156 
	C293.542267,345.558777 292.158997,342.653839 292.431152,340.697021 
	C292.919983,337.182343 295.851349,335.218140 299.471466,336.361847 
	C303.374359,337.594849 304.964813,340.466522 303.070618,344.919556 
z"/>
</svg>