<?xml version="1.0" encoding="UTF-8"?>
<svg xmlns="http://www.w3.org/2000/svg" xmlns:xlink="http://www.w3.org/1999/xlink" width="1536px" height="284px" viewBox="0 0 1537 284" version="1.1">
<g id="surface1">
<path style=" stroke:none;fill-rule:nonzero;fill:rgb(44.313725%,74.901961%,55.294118%);fill-opacity:1;" d="M 399.316406 6.644531 C 399.328125 6.667969 399.339844 6.699219 399.359375 6.722656 L 399.347656 6.644531 Z M 399.359375 6.722656 L 412.9375 117.796875 C 412.679688 117.628906 412.433594 117.425781 412.175781 117.269531 L 413.070312 118.894531 L 415.007812 134.695312 C 414.695312 135.734375 414.4375 136.789062 414.203125 137.863281 L 408.0625 137.863281 L 398.488281 130.546875 L 404.246094 120.136719 C 400.335938 120.160156 396.324219 120.429688 392.652344 121.875 C 391.699219 122.253906 390.890625 122.769531 390.140625 123.34375 L 388.214844 120.886719 L 399.664062 86.519531 C 395.273438 86.519531 390.589844 87.28125 387.09375 90.140625 C 380.902344 95.214844 380.597656 103.453125 380.644531 111.261719 L 374.640625 103.632812 C 374.808594 105.019531 375.511719 106.265625 376.050781 107.53125 C 377.460938 110.835938 379.019531 114.074219 380.65625 117.269531 C 380.644531 117.335938 380.65625 117.414062 380.65625 117.480469 C 380.621094 118.757812 380.386719 119.746094 380.027344 120.574219 C 379.972656 120.574219 379.925781 120.585938 379.871094 120.585938 C 377.328125 120.808594 374.773438 121.078125 372.21875 121.390625 C 371.425781 118.535156 370.527344 115.6875 369.441406 112.910156 C 367.101562 106.9375 364.175781 101.019531 360.054688 96.089844 L 375.265625 50.382812 C 372.878906 52.78125 370.773438 55.445312 368.847656 58.238281 C 360.492188 70.339844 355.292969 84.289062 350.78125 98.207031 C 347.667969 107.800781 345.101562 117.570312 342.996094 127.433594 C 341.257812 127.96875 339.535156 128.542969 337.808594 129.148438 L 336.824219 128.386719 C 336.09375 124.921875 335.3125 121.480469 334.449219 118.054688 C 330.808594 103.621094 326.40625 89.074219 318.945312 76.144531 L 322.070312 65.597656 C 319.585938 66.863281 317.34375 68.488281 315.304688 70.359375 C 311.429688 64.667969 306.757812 59.257812 300.554688 56.085938 L 307.53125 79.582031 C 307.230469 80.042969 306.882812 80.480469 306.578125 80.929688 C 298.714844 92.839844 293.96875 106.421875 290.191406 120.160156 C 286.898438 120.226562 283.5625 120.539062 280.4375 121.628906 C 278.195312 110.5 275.363281 99.496094 271.855469 88.707031 C 271.117188 86.429688 270.320312 84.167969 269.539062 81.902344 C 269.683594 81.566406 269.863281 81.253906 270.007812 80.90625 C 270.546875 79.640625 271.25 78.394531 271.417969 77.007812 L 268.945312 80.15625 C 265.046875 69.152344 260.429688 58.347656 253.789062 48.722656 C 251.871094 45.945312 249.753906 43.277344 247.371094 40.878906 L 262.972656 87.742188 L 235.136719 123.117188 C 233.78125 122.1875 232.359375 121.359375 230.871094 120.6875 C 230.410156 120.472656 229.953125 120.28125 229.46875 120.125 L 233.347656 125.394531 L 228.539062 131.5 C 227.0625 129.101562 225.515625 126.75 223.859375 124.472656 C 220.429688 119.746094 216.273438 115.429688 211.59375 111.84375 L 223.296875 16.148438 C 214.011719 34.75 208.242188 54.917969 204.671875 75.347656 C 203.226562 83.652344 202.128906 92 201.289062 100.359375 C 200.695312 101.871094 200.132812 103.394531 199.574219 104.921875 C 197.757812 104.191406 195.898438 103.5625 193.996094 103.070312 C 191.6875 100.773438 189.246094 98.621094 186.648438 96.730469 C 170.640625 85.050781 151.429688 77.824219 131.851562 75.527344 C 129.835938 75.292969 127.816406 75.113281 125.789062 75.101562 L 139.703125 85.242188 L 191.351562 122.839844 C 189.863281 123.644531 188.429688 124.5625 187.039062 125.550781 C 183.757812 123.207031 180.152344 121.304688 176.273438 120.136719 L 181.316406 130.335938 C 178.90625 132.65625 176.722656 135.175781 174.730469 137.863281 L 156.738281 137.863281 C 155.699219 136.351562 154.601562 134.875 153.457031 133.4375 L 161.097656 122.925781 C 161.511719 122.421875 161.9375 121.941406 162.339844 121.425781 L 162.6875 120.730469 L 168.210938 113.132812 C 158.734375 113.390625 149.917969 117 142.367188 122.492188 C 141.261719 121.660156 140.117188 120.855469 138.917969 120.136719 L 139.703125 121.5625 L 140.835938 123.609375 C 137.898438 125.910156 135.167969 128.472656 132.703125 131.265625 C 132.355469 129.617188 132.019531 127.960938 131.636719 126.3125 C 128.378906 112.269531 124.515625 97.3125 114.386719 86.519531 L 121.726562 137.863281 L 120 137.863281 C 117.679688 135.578125 115.171875 133.496094 112.515625 131.632812 L 114.847656 120.136719 C 112.507812 122.9375 110.34375 125.898438 108.363281 128.957031 C 106.90625 128.105469 105.414062 127.332031 103.890625 126.601562 C 101.515625 115.351562 98.402344 104.246094 94.328125 93.511719 L 95.390625 90.320312 C 94.652344 90.320312 93.902344 90.375 93.148438 90.429688 C 91.335938 85.882812 89.339844 81.398438 87.15625 77.007812 L 88.871094 91.035156 C 86.675781 91.585938 84.59375 92.480469 82.824219 93.9375 C 75.25 100.144531 76.472656 111.050781 76.382812 120.136719 C 76.324219 120.136719 76.269531 120.125 76.214844 120.125 L 76.382812 120.261719 L 76.382812 121.28125 C 76.234375 127.476562 71.597656 127.589844 68.027344 129.167969 C 64.84375 128.058594 61.628906 127.074219 58.371094 126.1875 C 58.066406 124.808594 57.777344 123.421875 57.460938 122.03125 L 59.757812 120.125 C 58.839844 120.136719 57.933594 120.171875 57.015625 120.226562 C 55.246094 112.808594 53.207031 105.457031 50.855469 98.207031 C 46.339844 84.289062 41.140625 70.328125 32.785156 58.226562 C 30.859375 55.445312 28.753906 52.78125 26.367188 50.382812 L 49.878906 120.988281 C 47.335938 121.402344 44.816406 121.988281 42.328125 122.691406 C 36.863281 121.773438 31.375 121.066406 25.875 120.574219 C 25.335938 120.53125 24.800781 120.507812 24.273438 120.460938 C 22 115.667969 19.332031 111.0625 16.296875 106.703125 L 19.78125 100.414062 C 17.207031 100.425781 14.59375 100.5625 12.050781 101.066406 C 11.882812 100.851562 11.726562 100.628906 11.546875 100.414062 L 11.695312 101.132812 C 10.875 101.300781 10.070312 101.503906 9.273438 101.769531 C 9.164062 101.804688 9.050781 101.859375 8.9375 101.90625 L -4.671875 84.613281 C -4.492188 86.003906 -3.796875 87.257812 -3.25 88.527344 C -0.90625 94.003906 1.804688 99.304688 4.714844 104.496094 C 2.308594 106.769531 0.863281 109.972656 0.886719 113.371094 C 0.917969 117.078125 2.585938 123.363281 -3.328125 123.050781 C -4.972656 122.972656 -6.921875 123.128906 -8.46875 123.824219 L -8.46875 289.289062 L 1545.480469 289.289062 L 1545.480469 132.386719 C 1542.824219 126.78125 1539.320312 121.605469 1534.582031 117.683594 L 1545.480469 109.75 L 1545.480469 92.023438 C 1536.125 95.597656 1527.210938 100.335938 1519.132812 106.230469 C 1514.304688 109.75 1509.914062 114.007812 1506.296875 118.828125 C 1506.195312 115.902344 1506.074219 112.976562 1505.917969 110.0625 L 1511.328125 105.917969 C 1509.46875 106.644531 1507.640625 107.464844 1505.804688 108.257812 C 1504.988281 94.0625 1503.5625 79.898438 1501.109375 65.84375 C 1497.539062 45.417969 1491.78125 25.246094 1482.484375 6.644531 L 1493.59375 97.410156 L 1493.460938 98.027344 C 1489.742188 102.019531 1486.863281 106.578125 1484.554688 111.453125 C 1485.226562 97.410156 1484.476562 83.28125 1483.46875 69.285156 L 1472.648438 122.523438 L 1457.773438 103.632812 C 1457.941406 105.019531 1458.648438 106.277344 1459.183594 107.542969 C 1462.332031 114.882812 1466.105469 121.90625 1470.21875 128.753906 C 1466.769531 131.230469 1463.386719 133.808594 1460.058594 136.441406 C 1460.101562 134.414062 1460.101562 132.386719 1459.96875 130.355469 C 1459.8125 128.183594 1459.476562 125.660156 1457.707031 124.160156 C 1457.191406 123.710938 1456.585938 123.566406 1455.96875 123.523438 C 1457.144531 128.160156 1457.976562 132.878906 1458.558594 137.640625 C 1458.457031 137.71875 1458.367188 137.785156 1458.277344 137.863281 L 1455.320312 137.863281 C 1454.660156 133.269531 1453.898438 128.6875 1453.046875 124.117188 C 1453.988281 123.722656 1454.996094 123.453125 1455.96875 123.523438 C 1455.050781 119.925781 1453.941406 116.382812 1452.585938 112.910156 C 1451.488281 110.109375 1450.199219 107.351562 1448.789062 104.664062 C 1447.613281 100.046875 1446.324219 95.460938 1444.925781 90.914062 L 1458.410156 50.382812 C 1456.027344 52.78125 1453.910156 55.445312 1451.992188 58.238281 C 1447.535156 64.691406 1443.996094 71.671875 1440.960938 78.898438 C 1437.015625 67.660156 1432.355469 56.632812 1425.582031 46.828125 C 1423.652344 44.039062 1421.546875 41.371094 1419.164062 38.972656 L 1436.433594 90.835938 C 1435.570312 93.289062 1434.722656 95.742188 1433.914062 98.207031 C 1429.714844 111.160156 1426.476562 124.441406 1424.089844 137.855469 L 1421.785156 137.855469 C 1420.808594 132.183594 1419.621094 126.558594 1418.277344 120.964844 C 1419.644531 112.976562 1420.113281 104.839844 1419.507812 96.761719 L 1414.546875 106.824219 C 1411.445312 96.179688 1407.613281 85.714844 1402.089844 76.144531 L 1405.226562 65.597656 C 1402.730469 66.863281 1400.488281 68.488281 1398.441406 70.351562 C 1394.5625 64.65625 1389.902344 59.265625 1383.699219 56.097656 L 1390.675781 79.582031 C 1390.363281 80.03125 1390.027344 80.46875 1389.726562 80.929688 C 1380.773438 94.476562 1375.8125 110.1875 1371.792969 125.828125 L 1357.519531 96.917969 C 1356.726562 94.171875 1355.886719 91.429688 1355 88.707031 C 1354.273438 86.429688 1353.464844 84.167969 1352.683594 81.902344 C 1352.828125 81.566406 1353.007812 81.242188 1353.152344 80.90625 C 1353.691406 79.640625 1354.394531 78.394531 1354.5625 77.007812 L 1352.089844 80.15625 C 1348.191406 69.140625 1343.574219 58.335938 1336.933594 48.722656 C 1335.007812 45.945312 1332.902344 43.265625 1330.515625 40.867188 L 1346.117188 87.742188 L 1332.003906 105.671875 C 1331.625 103.40625 1330.972656 101.175781 1329.898438 99.046875 L 1328.117188 102.265625 C 1324.488281 84.347656 1319.054688 66.753906 1310.878906 50.382812 L 1319.191406 118.390625 L 1312.582031 130.347656 L 1311.675781 131.5 C 1310.195312 129.101562 1308.660156 126.75 1307.003906 124.464844 C 1303.566406 119.746094 1299.421875 115.417969 1294.726562 111.832031 L 1306.433594 16.148438 C 1297.144531 34.738281 1291.390625 54.917969 1287.816406 75.347656 C 1286.371094 83.664062 1285.261719 92 1284.433594 100.371094 C 1283.839844 101.871094 1283.277344 103.394531 1282.730469 104.921875 C 1280.902344 104.179688 1279.035156 103.5625 1277.128906 103.070312 C 1274.820312 100.773438 1272.390625 98.609375 1269.792969 96.71875 C 1253.785156 85.050781 1234.5625 77.824219 1214.984375 75.515625 C 1212.980469 75.28125 1210.953125 75.113281 1208.925781 75.101562 L 1222.847656 85.242188 L 1274.496094 122.839844 C 1272.671875 123.8125 1270.925781 124.933594 1269.265625 126.175781 C 1264.863281 129.484375 1261.121094 133.472656 1257.863281 137.855469 L 1246.414062 137.855469 L 1242.257812 128.507812 C 1241.117188 129.078125 1239.695312 129.628906 1238.394531 129.539062 C 1240.859375 126.917969 1243.246094 124.238281 1245.484375 121.425781 L 1246.125 120.136719 L 1240.300781 124.585938 L 1243.582031 120.125 C 1243.101562 120.273438 1242.640625 120.472656 1242.191406 120.675781 C 1240.378906 121.503906 1238.6875 122.558594 1237.085938 123.734375 C 1235.820312 117.203125 1235.148438 110.546875 1234.855469 103.878906 C 1234.855469 103.988281 1234.855469 104.226562 1234.855469 104.324219 C 1234.652344 110.445312 1233.972656 116.574219 1234.394531 122.703125 C 1234.453125 123.644531 1234.574219 124.632812 1234.8125 125.574219 C 1233.859375 126.425781 1232.996094 127.363281 1232.132812 128.304688 C 1230.230469 126.355469 1228.203125 124.507812 1226.019531 122.839844 C 1224.753906 121.863281 1223.441406 120.957031 1222.0625 120.136719 L 1222.847656 121.550781 L 1228.851562 132.40625 C 1228.582031 132.789062 1228.269531 133.160156 1228.011719 133.550781 C 1227.84375 133.808594 1227.710938 134.089844 1227.542969 134.347656 L 1222.949219 137.863281 L 1214.011719 137.863281 C 1211.421875 132.753906 1208.398438 127.878906 1204.914062 123.320312 L 1190.351562 51.570312 C 1188.707031 74.285156 1187.710938 97.402344 1192.4375 119.835938 C 1192.480469 120.070312 1192.546875 120.304688 1192.59375 120.539062 C 1178.78125 109.425781 1163.984375 99.375 1147.886719 91.953125 C 1147.808594 88.3125 1147.105469 84.726562 1145.390625 81.332031 L 1141.113281 89.074219 C 1140.429688 88.792969 1139.757812 88.480469 1139.0625 88.199219 L 1140.84375 89.558594 L 1129.550781 109.960938 L 1126.449219 115.589844 C 1112.785156 105.1875 1098.144531 96.054688 1082.269531 89.5 L 1083.960938 88.199219 C 1083.15625 88.515625 1082.382812 88.882812 1081.589844 89.210938 C 1080.792969 88.882812 1080.019531 88.515625 1079.222656 88.199219 L 1080.914062 89.5 C 1070.96875 93.601562 1061.515625 98.710938 1052.476562 104.527344 L 1039.640625 81.332031 C 1034.902344 90.734375 1037.578125 101.691406 1041.554688 110.925781 C 1041.667969 111.183594 1041.835938 111.441406 1041.957031 111.699219 C 1037.535156 114.90625 1033.199219 118.253906 1028.964844 121.695312 C 1027.921875 121.929688 1026.878906 122.1875 1025.839844 122.480469 L 1024.605469 117.257812 C 1024.4375 119.164062 1024.292969 121.078125 1024.148438 122.984375 C 1023.566406 123.164062 1022.972656 123.332031 1022.390625 123.523438 C 1021.527344 122.378906 1020.664062 121.234375 1019.746094 120.136719 L 1020.5625 124.171875 C 1017.671875 125.234375 1014.871094 126.503906 1012.171875 127.960938 L 1009.160156 122.523438 C 1010.292969 121.222656 1011.402344 119.902344 1012.476562 118.558594 L 1013.101562 117.257812 L 1008.285156 120.945312 L 1006.246094 117.257812 C 1005.609375 118.558594 1005.117188 119.867188 1004.734375 121.191406 C 1004.457031 120.84375 1004.199219 120.472656 1003.90625 120.125 L 1004.398438 122.535156 C 1004.277344 123.085938 1004.152344 123.632812 1004.074219 124.171875 L 997.644531 129.089844 L 999.472656 120.125 C 996.859375 123.253906 994.496094 126.558594 992.335938 129.988281 L 992.035156 129.851562 L 988.101562 128.128906 L 985.984375 119.230469 L 966.695312 37.832031 C 964.613281 60.644531 964.210938 84.269531 971.019531 106.332031 C 972.632812 111.554688 974.761719 116.867188 977.652344 121.628906 C 977.058594 122.03125 976.453125 122.402344 975.882812 122.839844 C 975.210938 123.34375 974.582031 123.902344 973.945312 124.453125 C 969.496094 123.105469 964.980469 121.988281 960.421875 121.046875 C 960.1875 120.921875 959.953125 120.789062 959.71875 120.675781 C 959.257812 120.472656 958.800781 120.273438 958.316406 120.125 L 958.730469 120.6875 C 957.769531 120.496094 956.792969 120.339844 955.832031 120.171875 L 955.773438 120.136719 L 955.773438 120.171875 C 954.746094 119.980469 953.714844 119.789062 952.683594 119.621094 C 952.839844 118.847656 952.972656 118.074219 953.042969 117.269531 L 948.941406 119.0625 C 945.101562 118.523438 941.246094 118.054688 937.40625 117.71875 C 934.558594 117.46875 931.726562 117.28125 928.871094 117.269531 L 929.507812 117.550781 L 940.957031 122.570312 L 932.65625 126.210938 C 932.65625 126.199219 932.609375 126.1875 932.609375 126.175781 C 931.925781 125.660156 931.210938 125.179688 930.480469 124.710938 C 929.316406 122.222656 927.457031 120.136719 924.613281 119.003906 C 920.9375 117.558594 916.929688 117.292969 913.03125 117.257812 L 918.957031 127.980469 C 918.238281 127.375 917.535156 126.75 916.78125 126.175781 C 914.824219 124.710938 912.726562 123.421875 910.53125 122.324219 C 909.828125 119.609375 909.019531 116.921875 908.125 114.265625 L 929.730469 70.472656 C 924.367188 72.074219 919.492188 75.078125 915.292969 78.742188 C 909.3125 83.964844 904.585938 90.386719 900.777344 97.34375 C 896.96875 90.386719 892.242188 83.964844 886.257812 78.742188 C 882.058594 75.078125 877.199219 72.074219 871.832031 70.472656 L 893.429688 114.253906 C 893.046875 115.386719 892.699219 116.519531 892.351562 117.648438 C 890.480469 117.90625 888.644531 118.3125 886.875 119.003906 C 880.769531 121.414062 879.078125 128.171875 879.449219 133.964844 C 879.5625 135.757812 879.234375 136.980469 878.652344 137.855469 L 859.109375 137.855469 C 858.90625 134.546875 858.601562 131.253906 858.222656 127.960938 L 882.628906 117.257812 C 879.773438 117.269531 876.941406 117.460938 874.09375 117.71875 C 868.414062 118.210938 862.726562 118.949219 857.078125 119.925781 C 856.765625 118.074219 856.476562 116.238281 856.082031 114.410156 C 852.722656 98.410156 845.914062 83.046875 835.382812 70.472656 L 845.890625 122.210938 C 841.207031 123.332031 836.582031 124.6875 832.035156 126.265625 L 821.28125 118.042969 L 830.9375 70.472656 C 820.40625 83.046875 813.597656 98.410156 810.234375 114.410156 C 808.601562 122.15625 807.683594 129.988281 807.210938 137.855469 L 801.410156 137.855469 L 815.109375 70.472656 C 804.566406 83.046875 797.769531 98.410156 794.398438 114.410156 C 793.5 118.667969 792.863281 122.960938 792.347656 127.265625 C 790.164062 123.78125 787.765625 120.429688 785.121094 117.269531 L 787.890625 130.871094 C 784.238281 131.140625 779.667969 131.667969 779.9375 126.558594 C 780.128906 123.140625 779.277344 118.300781 774.660156 118.828125 C 765.339844 119.890625 758.363281 109.671875 749.769531 105.972656 C 743.21875 103.148438 735.804688 101.03125 728.691406 101.703125 C 728.691406 95.40625 727.972656 89.109375 726.171875 82.867188 L 709 134.425781 C 707.117188 131.949219 705.054688 129.628906 702.816406 127.464844 L 707.855469 117.269531 C 703.992188 118.421875 700.386719 120.339844 697.101562 122.671875 C 695.199219 121.324219 693.195312 120.136719 691.085938 119.140625 L 692.015625 117.269531 C 691.054688 117.550781 690.113281 117.90625 689.183594 118.277344 C 688.242188 117.90625 687.300781 117.550781 686.339844 117.269531 L 687.269531 119.140625 C 686.269531 119.621094 685.296875 120.125 684.34375 120.6875 C 683.515625 120.125 682.6875 119.554688 681.847656 119.003906 L 683.539062 121.144531 C 682.753906 121.628906 682.003906 122.144531 681.253906 122.671875 C 680.15625 121.886719 679 121.15625 677.824219 120.484375 L 686.160156 101.726562 C 684.859375 102.433594 683.75 103.441406 682.6875 104.449219 C 678.597656 108.328125 675.585938 113.132812 673.144531 118.210938 C 672.28125 117.863281 671.394531 117.539062 670.5 117.257812 L 672.101562 120.496094 C 671.542969 121.773438 670.96875 123.039062 670.464844 124.316406 C 669.109375 127.792969 667.992188 131.332031 667.082031 134.929688 C 667.65625 134.882812 668.25 134.960938 668.84375 135.140625 C 668.179688 136.027344 667.519531 136.933594 666.902344 137.855469 L 666.398438 137.855469 C 666.625 136.878906 666.824219 135.894531 667.082031 134.929688 C 666.578125 134.960938 666.085938 135.074219 665.648438 135.367188 L 654.539062 80.691406 C 653.640625 93.007812 652.980469 105.433594 653.285156 117.808594 C 653.285156 117.808594 653.285156 117.808594 653.25 117.816406 C 651.007812 118.835938 648.9375 120.171875 647.023438 121.71875 L 638.765625 63.851562 C 637.792969 82.519531 636.996094 101.367188 637.308594 120.148438 C 637.230469 120.082031 637.164062 120.027344 637.085938 119.96875 C 635.820312 118.996094 634.5 118.085938 633.132812 117.257812 L 637.386719 124.945312 C 637.445312 127.355469 637.601562 129.761719 637.703125 132.160156 L 634.980469 134.246094 L 620.417969 90.476562 C 618.257812 97.917969 617.628906 105.457031 617.964844 112.988281 C 616.09375 110.289062 614 107.742188 611.691406 105.390625 C 617.058594 96.941406 621.910156 88.199219 625.851562 79 C 626.390625 77.734375 627.09375 76.492188 627.273438 75.101562 L 606.886719 100.996094 C 605.902344 100.191406 604.9375 99.363281 603.90625 98.621094 C 587.902344 86.945312 568.691406 79.730469 549.109375 77.421875 C 547.09375 77.1875 545.078125 77.007812 543.050781 77.007812 L 543.679688 77.464844 L 595.640625 115.296875 L 592.929688 118.738281 L 593.222656 117.257812 C 592.304688 118.367188 591.441406 119.511719 590.578125 120.652344 C 584.09375 118.488281 577.261719 117.335938 570.4375 117.257812 L 574.382812 120.539062 C 574.054688 120.40625 573.730469 120.261719 573.394531 120.136719 L 574.984375 121.347656 C 571.816406 123.015625 569.050781 125.316406 566.597656 127.9375 C 564.589844 127.152344 562.5625 126.425781 560.523438 125.742188 C 564.511719 119.105469 567.011719 111.664062 567.222656 103.789062 L 548.257812 117.59375 C 547.507812 117.660156 546.757812 117.75 546.007812 117.851562 C 545.582031 112.316406 544.195312 107.070312 539.78125 103.453125 C 536.285156 100.582031 531.601562 99.820312 527.210938 99.820312 L 533.71875 119.351562 C 529.183594 118.660156 524.636719 118.109375 520.089844 117.71875 C 517.253906 117.460938 514.410156 117.269531 511.5625 117.257812 L 518.566406 120.339844 L 514.007812 123.824219 L 511.96875 120.136719 C 510.9375 122.222656 510.265625 124.339844 509.882812 126.492188 C 508.035156 123.957031 505.953125 121.628906 503.523438 119.644531 L 505.695312 113.113281 L 512.652344 92.222656 C 508.261719 92.222656 503.578125 92.972656 500.082031 95.84375 C 492.195312 102.296875 493.867188 113.894531 493.640625 123.183594 C 493.53125 127.949219 490.761719 129.113281 487.863281 130.109375 C 485.375 129.179688 482.855469 128.316406 480.300781 127.535156 C 479.460938 126.175781 478.585938 124.855469 477.679688 123.554688 L 481.164062 117.257812 C 478.585938 117.28125 475.988281 117.449219 473.445312 117.941406 C 473.265625 117.71875 473.109375 117.480469 472.917969 117.257812 L 473.078125 117.996094 C 471.890625 118.253906 470.714844 118.558594 469.582031 119.003906 C 467.183594 119.945312 465.492188 121.570312 464.304688 123.53125 C 462.34375 123.152344 460.386719 122.792969 458.414062 122.480469 C 458.570312 121.707031 458.707031 120.933594 458.773438 120.125 L 454.671875 121.917969 C 452.074219 121.550781 449.476562 121.234375 446.867188 120.964844 L 496.8125 84.605469 C 494.785156 84.613281 492.769531 84.78125 490.761719 85.019531 C 471.183594 87.328125 451.960938 94.542969 435.957031 106.21875 C 435.753906 106.367188 435.5625 106.535156 435.371094 106.691406 L 434.441406 105.515625 C 434.511719 106.0625 434.699219 106.566406 434.890625 107.070312 C 430.488281 110.421875 426.46875 114.367188 423.117188 118.816406 C 422.492188 101.066406 420.992188 83.371094 417.933594 65.835938 C 414.371094 45.441406 408.613281 25.292969 399.359375 6.722656 Z M 1234.855469 103.878906 C 1234.945312 100.269531 1234.699219 91.035156 1234.675781 94.285156 C 1234.632812 97.46875 1234.722656 100.683594 1234.855469 103.878906 Z M 1081.589844 90.015625 L 1106.769531 109.277344 L 1123.042969 121.738281 L 1122.765625 122.246094 C 1119.671875 121.761719 1116.570312 121.382812 1113.457031 121.046875 C 1113.085938 119.777344 1112.617188 118.511719 1112 117.269531 L 1110.09375 120.699219 C 1109.738281 120.652344 1109.378906 120.621094 1109.019531 120.585938 C 1106.476562 120.363281 1103.921875 120.203125 1101.359375 120.160156 L 1101.425781 120.136719 C 1101.269531 120.136719 1101.113281 120.148438 1100.957031 120.148438 C 1100.796875 120.148438 1100.652344 120.136719 1100.496094 120.136719 L 1100.5625 120.160156 C 1097.996094 120.195312 1095.445312 120.363281 1092.890625 120.585938 C 1088.253906 120.988281 1083.625 121.550781 1079 122.253906 C 1077.902344 121.730469 1076.804688 121.191406 1075.683594 120.675781 C 1074.140625 119.96875 1072.570312 119.285156 1070.992188 118.625 L 1072 117.257812 C 1071.519531 117.402344 1071.046875 117.617188 1070.597656 117.816406 C 1070.351562 117.929688 1070.128906 118.0625 1069.894531 118.175781 C 1069.164062 117.875 1068.425781 117.558594 1067.6875 117.269531 L 1069.289062 118.480469 C 1066.914062 119.722656 1064.742188 121.292969 1062.769531 123.117188 L 1055.5 109.996094 Z M 264.496094 92.324219 L 267.34375 100.886719 C 266.667969 101.402344 266.03125 101.960938 265.414062 102.542969 C 259.714844 107.957031 256.039062 115.160156 253.195312 122.421875 C 252.960938 123.027344 252.769531 123.667969 252.542969 124.273438 C 251.648438 123.578125 250.71875 122.949219 249.765625 122.355469 L 250.988281 120.136719 C 250.191406 120.621094 249.453125 121.167969 248.703125 121.707031 C 248.0625 121.347656 247.425781 121.011719 246.765625 120.707031 C 253.238281 111.566406 259.320312 102.1875 264.496094 92.324219 Z M 1347.640625 92.324219 L 1350.5 100.886719 C 1349.824219 101.402344 1349.175781 101.960938 1348.558594 102.542969 C 1347.609375 103.453125 1346.734375 104.414062 1345.894531 105.414062 L 1343.308594 100.179688 C 1344.820312 97.601562 1346.253906 94.96875 1347.640625 92.324219 Z M 1147.777344 94.878906 L 1162.058594 105.804688 L 1181.648438 120.789062 C 1180.921875 121.683594 1180.214844 122.601562 1179.511719 123.523438 C 1173.023438 121.359375 1166.191406 120.203125 1159.371094 120.136719 L 1162.058594 122.367188 L 1173.773438 132.070312 C 1172.65625 133.964844 1171.589844 135.894531 1170.59375 137.863281 L 1170.269531 137.863281 C 1168.8125 136.957031 1167.34375 136.105469 1165.890625 135.367188 C 1157.230469 131.007812 1148.089844 127.792969 1138.714844 125.4375 C 1137.660156 124.542969 1136.621094 123.644531 1135.542969 122.769531 C 1138.378906 118.90625 1141.683594 115.105469 1143.488281 110.925781 C 1145.636719 105.917969 1147.363281 100.382812 1147.777344 94.878906 Z M 312.730469 97.074219 L 323.964844 134.917969 C 323.652344 135.074219 323.324219 135.210938 323.011719 135.367188 C 321.546875 136.105469 320.078125 136.957031 318.632812 137.863281 L 305.671875 137.863281 L 306.242188 135.960938 C 305.144531 136.519531 304.117188 137.171875 303.109375 137.863281 L 302.46875 137.863281 C 302.089844 137.101562 301.695312 136.351562 301.292969 135.601562 Z M 1395.875 97.074219 L 1398.753906 106.746094 L 1384.316406 136.015625 Z M 358.441406 100.898438 L 367.816406 122.007812 C 364.691406 122.457031 361.589844 122.972656 358.488281 123.578125 L 359.4375 120.742188 C 358.410156 121.773438 357.457031 122.882812 356.527344 123.992188 C 354.441406 124.429688 352.359375 124.890625 350.289062 125.402344 Z M 1350.957031 102.253906 L 1357.488281 121.886719 L 1355.652344 125.214844 L 1347.808594 109.324219 Z M 267.800781 102.265625 L 275.382812 125.011719 C 275.027344 125.460938 274.667969 125.910156 274.375 126.402344 L 266.636719 120.484375 L 266.828125 120.136719 C 266.714844 120.214844 266.601562 120.292969 266.492188 120.371094 L 266.1875 120.136719 L 266.34375 120.460938 C 265.15625 121.203125 263.992188 121.988281 262.871094 122.839844 C 260.6875 124.507812 258.660156 126.355469 256.757812 128.304688 C 256.644531 128.183594 256.519531 128.058594 256.410156 127.9375 Z M 1341.367188 103.363281 C 1341.367188 106.019531 1341.46875 108.675781 1341.671875 111.320312 C 1339.554688 114.835938 1337.828125 118.625 1336.339844 122.421875 C 1334.984375 125.886719 1333.875 129.4375 1332.957031 133.023438 C 1333.730469 132.980469 1334.515625 133.113281 1335.285156 133.394531 L 1333.136719 137.292969 C 1333.023438 136.070312 1332.910156 134.863281 1332.789062 133.640625 C 1332.84375 133.4375 1332.902344 133.238281 1332.957031 133.023438 C 1332.890625 133.035156 1332.8125 133.023438 1332.734375 133.023438 C 1332.273438 128.574219 1331.714844 124.125 1331.074219 119.6875 C 1331.164062 119.351562 1331.253906 119.015625 1331.332031 118.679688 C 1334.851562 113.671875 1338.199219 108.574219 1341.367188 103.363281 Z M 1440.691406 103.621094 L 1452.09375 137.863281 L 1446.671875 137.863281 L 1439 131.511719 L 1442.585938 120.742188 C 1440.1875 123.140625 1438.082031 125.820312 1436.15625 128.597656 C 1434.09375 131.578125 1432.222656 134.683594 1430.507812 137.863281 L 1429.289062 137.863281 Z M 90.550781 104.832031 L 92.703125 122.421875 C 90.25 121.761719 87.738281 121.246094 85.21875 120.867188 Z M 728.433594 108.605469 L 744.707031 117.628906 C 744.105469 118.007812 743.53125 118.421875 742.9375 118.835938 C 742.300781 118.46875 741.640625 118.132812 740.957031 117.816406 C 740.496094 117.605469 740.039062 117.402344 739.554688 117.257812 L 741.460938 119.847656 C 741.402344 119.902344 741.335938 119.925781 741.28125 119.980469 C 739.097656 121.648438 737.082031 123.488281 735.175781 125.449219 C 732.789062 122.839844 730.113281 120.507812 727.042969 118.804688 C 727.648438 115.410156 728.164062 112.011719 728.433594 108.605469 Z M 11.378906 115.621094 C 12.914062 118.019531 14.484375 120.394531 16.097656 122.757812 L 18.234375 133.292969 C 15.601562 128.777344 12.289062 124.71875 8.054688 121.628906 Z M 1045.597656 117.570312 C 1048.253906 121.191406 1051.222656 124.699219 1052.957031 128.453125 C 1047.167969 130.367188 1041.488281 132.621094 1036.019531 135.367188 C 1034.566406 136.105469 1033.097656 136.96875 1031.640625 137.863281 L 1031.316406 137.863281 C 1030.320312 135.902344 1029.253906 133.976562 1028.136719 132.082031 L 1029.042969 131.332031 L 1042.539062 120.136719 C 1042.429688 120.148438 1042.316406 120.148438 1042.203125 120.148438 L 1044.871094 118.109375 Z M 744.964844 117.773438 L 747.386719 119.117188 L 753.847656 122.703125 C 752.875 123.578125 751.921875 124.507812 751.003906 125.449219 C 748.929688 123.164062 746.625 121.101562 744.015625 119.488281 Z M 821.144531 118.816406 C 823.554688 121.828125 826.140625 124.6875 828.808594 127.476562 C 825.300781 128.8125 821.851562 130.277344 818.480469 131.925781 Z M 653.351562 119.085938 C 653.351562 119.464844 653.382812 119.835938 653.382812 120.203125 L 651.414062 121.707031 Z M 1070.429688 119.375 L 1075.089844 122.9375 C 1072.222656 123.441406 1069.367188 124.015625 1066.535156 124.664062 Z M 1532.027344 119.542969 L 1534.390625 129.484375 C 1531.8125 128.96875 1529.148438 128.820312 1526.527344 128.8125 L 1531.535156 137.863281 L 1506.96875 137.863281 L 1507.046875 137.71875 Z M 601.914062 119.835938 L 605.242188 122.253906 C 604.332031 123.511719 603.449219 124.789062 602.609375 126.085938 C 601.386719 125.371094 600.144531 124.710938 598.867188 124.082031 C 599.898438 122.671875 600.90625 121.257812 601.914062 119.835938 Z M 1402.652344 119.878906 L 1402.785156 120.316406 L 1402.617188 120.015625 C 1402.617188 119.96875 1402.652344 119.925781 1402.652344 119.878906 Z M 1100.957031 120.328125 L 1108.480469 123.621094 L 1105.222656 129.515625 C 1102.007812 130.03125 1098.804688 130.625 1095.625 131.308594 C 1092.835938 129.59375 1089.988281 127.960938 1087.121094 126.390625 L 1087.503906 126.222656 L 1091.613281 124.417969 Z M 518.734375 120.394531 L 525.511719 123.363281 L 526.339844 123.722656 C 523.078125 125.292969 519.964844 127.128906 517.042969 129.238281 L 514.914062 125.394531 C 516.042969 124.09375 517.140625 122.769531 518.230469 121.425781 Z M 266.492188 120.742188 L 266.828125 121.425781 C 268.863281 123.980469 271.015625 126.445312 273.234375 128.832031 C 272.328125 131.375 272.035156 134.199219 272.203125 136.835938 C 272.226562 137.203125 272.203125 137.527344 272.203125 137.855469 L 263.285156 137.855469 C 262.558594 136.386719 261.785156 134.929688 260.890625 133.550781 C 260.621094 133.160156 260.320312 132.789062 260.050781 132.398438 Z M 1181.984375 121.023438 L 1191.796875 128.53125 C 1191.707031 128.675781 1191.605469 128.8125 1191.507812 128.957031 C 1188.28125 127.0625 1184.863281 125.472656 1181.335938 124.171875 Z M 726.585938 121.144531 L 732.183594 128.730469 C 729.753906 131.601562 727.558594 134.671875 725.53125 137.855469 L 722.394531 137.855469 C 724.03125 132.351562 725.476562 126.769531 726.585938 121.144531 Z M 246.261719 121.425781 L 247.214844 122.714844 C 247.15625 122.757812 247.101562 122.792969 247.035156 122.839844 C 245.308594 124.171875 243.695312 125.628906 242.140625 127.140625 C 243.527344 125.246094 244.894531 123.34375 246.261719 121.425781 Z M 742.804688 121.671875 L 747.386719 127.878906 L 748.011719 128.742188 C 745.972656 131.152344 744.09375 133.707031 742.34375 136.351562 C 741.472656 134.402344 740.472656 132.496094 739.296875 130.691406 C 739.039062 130.289062 738.726562 129.929688 738.457031 129.550781 Z M 576.183594 122.246094 L 579.109375 124.472656 L 579.925781 125.101562 L 584.789062 129.125 L 580.5625 134.480469 C 579.375 133.765625 578.179688 133.089844 576.980469 132.484375 C 574.929688 131.457031 572.859375 130.503906 570.75 129.59375 Z M 653.453125 122.332031 C 653.6875 127.535156 654.132812 132.710938 654.816406 137.863281 L 652.878906 137.863281 C 651.492188 135.691406 650.023438 133.5625 648.464844 131.523438 L 647.984375 128.21875 C 649.84375 126.289062 651.703125 124.363281 653.453125 122.332031 Z M 978.378906 122.769531 C 979.34375 124.25 980.394531 125.660156 981.527344 127.007812 C 980.003906 126.445312 978.457031 125.929688 976.910156 125.425781 Z M 689.207031 123.027344 L 690.070312 124.765625 C 689.652344 124.453125 689.226562 124.148438 688.800781 123.835938 Z M 289.230469 123.746094 C 288.894531 125.023438 288.511719 126.300781 288.1875 127.566406 C 288.121094 127.859375 288.054688 128.148438 287.984375 128.441406 C 287.660156 128.21875 287.335938 127.980469 287 127.769531 Z M 443 123.824219 C 443.484375 124.699219 443.929688 125.582031 444.421875 126.445312 L 437.0625 129.671875 C 436.941406 129.257812 436.804688 128.84375 436.648438 128.453125 Z M 6.820312 123.859375 L 10.148438 137.875 L -0.917969 137.875 L 3.304688 130.222656 Z M 607.714844 124.082031 L 613.316406 128.160156 L 611.132812 132.128906 C 609.734375 130.941406 608.265625 129.839844 606.765625 128.789062 Z M 26.425781 124.125 L 31.261719 126.265625 L 32.082031 126.625 C 31.195312 127.050781 30.3125 127.5 29.4375 127.96875 Z M 757.085938 124.507812 L 777.179688 135.644531 C 777.976562 136.398438 778.773438 137.148438 779.578125 137.886719 L 760.78125 137.886719 L 760.78125 137.863281 C 760.121094 137.429688 759.371094 137.304688 758.597656 137.269531 C 758.6875 137.472656 758.753906 137.6875 758.832031 137.886719 L 754.8125 137.886719 C 756.011719 137.550781 757.332031 137.226562 758.597656 137.269531 C 757.644531 134.996094 756.503906 132.789062 755.136719 130.703125 C 754.890625 130.3125 754.578125 129.953125 754.296875 129.5625 Z M 248.558594 124.550781 L 251.199219 128.136719 C 250.683594 129.761719 250.226562 131.398438 249.8125 133.046875 C 250.617188 132.980469 251.480469 133.148438 252.289062 133.460938 C 251.15625 134.894531 250.058594 136.363281 249.015625 137.875 L 248.714844 137.875 C 249.050781 136.261719 249.398438 134.648438 249.8125 133.046875 C 249.183594 133.101562 248.578125 133.238281 248.0625 133.683594 C 247.300781 134.324219 246.855469 135.175781 246.53125 136.082031 C 246.058594 135.230469 245.578125 134.390625 245.039062 133.574219 C 244.78125 133.179688 244.480469 132.824219 244.199219 132.429688 Z M 501.917969 124.5625 L 502.714844 127.925781 L 503.632812 131.792969 L 502.714844 132.496094 L 499.367188 135.0625 C 499.097656 134.929688 498.816406 134.816406 498.546875 134.683594 Z M 1343.820312 125.964844 C 1344.707031 130 1345.847656 133.976562 1347.183594 137.875 L 1339.902344 137.875 C 1341.402344 133.976562 1342.714844 130 1343.820312 125.964844 Z M 1401.476562 125.964844 C 1401.902344 127.511719 1402.359375 129.058594 1402.84375 130.582031 L 1399.246094 137.875 L 1398.113281 137.875 C 1399.449219 133.976562 1400.589844 130 1401.488281 125.964844 Z M 83.460938 126.15625 L 87.144531 129.203125 L 90.628906 132.09375 C 89.5 133.988281 88.445312 135.902344 87.449219 137.875 L 87.125 137.875 C 85.667969 136.96875 84.199219 136.117188 82.742188 135.378906 C 82.070312 135.042969 81.378906 134.75 80.695312 134.425781 Z M 1114.417969 126.253906 L 1118.058594 127.847656 C 1116.871094 127.96875 1115.671875 128.082031 1114.476562 128.226562 C 1114.476562 127.566406 1114.441406 126.90625 1114.417969 126.253906 Z M 687.605469 126.289062 L 689.789062 129.078125 C 689.597656 129.269531 689.394531 129.449219 689.207031 129.652344 C 688.5 128.902344 687.75 128.195312 687.011719 127.476562 Z M 949.757812 126.425781 L 965.429688 133.292969 C 964.242188 134.785156 963.113281 136.308594 962.023438 137.875 L 944.035156 137.875 C 943.230469 136.789062 942.390625 135.734375 941.515625 134.703125 C 944.742188 132.40625 947.644531 129.652344 949.757812 126.425781 Z M 675.136719 126.613281 L 675.5625 127.488281 C 675.070312 127.960938 674.589844 128.429688 674.117188 128.921875 Z M 386.121094 127.175781 C 386.277344 127.433594 386.433594 127.691406 386.589844 127.960938 C 385.402344 130.703125 385.035156 133.898438 385.222656 136.84375 C 385.257812 137.226562 385.222656 137.539062 385.222656 137.875 L 382.558594 137.875 Z M 1359.292969 127.308594 L 1362.820312 137.875 L 1361.890625 137.875 L 1358.292969 130.582031 C 1358.640625 129.496094 1358.976562 128.40625 1359.292969 127.308594 Z M 1003.761719 128.328125 C 1003.761719 129.929688 1003.964844 131.523438 1004.210938 133.125 C 1003.636719 133.5625 1003.089844 134.019531 1002.527344 134.46875 L 999.167969 133 C 1000.738281 131.476562 1002.25 129.898438 1003.761719 128.328125 Z M 1082.351562 128.507812 L 1088.308594 133.058594 C 1084.152344 134.15625 1080.066406 135.433594 1076.03125 136.914062 C 1076.078125 136.578125 1076.089844 136.230469 1076.089844 135.914062 C 1076.089844 134.882812 1076.019531 132.890625 1076 131.289062 Z M 368.589844 128.832031 C 366.898438 131.625 365.859375 134.683594 365.117188 137.875 L 353.738281 137.875 L 354.722656 134.917969 Z M 900.796875 129.167969 L 905.101562 137.875 L 896.507812 137.875 Z M 455.523438 129.304688 L 462.15625 132.207031 C 462.15625 132.8125 462.15625 133.40625 462.1875 133.988281 C 462.289062 135.78125 461.976562 137.003906 461.394531 137.875 L 459.9375 137.875 L 454.414062 130.871094 C 454.808594 130.367188 455.164062 129.839844 455.523438 129.304688 Z M 1238.394531 129.5625 C 1239.113281 132.375 1239.984375 135.140625 1240.960938 137.875 L 1239.886719 137.875 C 1238.5625 135.960938 1237.175781 134.101562 1235.695312 132.308594 C 1236.59375 131.386719 1237.511719 130.503906 1238.394531 129.5625 Z M 285.777344 130 L 286.808594 133.496094 C 286.652344 134.191406 286.484375 134.875 286.328125 135.558594 L 283.785156 133.605469 Z M 1074.8125 131.8125 C 1074.441406 133.875 1073.9375 135.894531 1073.320312 137.875 L 1070.914062 137.875 L 1068.976562 134.367188 L 1073.367188 132.441406 Z M 1117.253906 132.21875 L 1114.40625 137.359375 L 1114.128906 137.875 L 1113.019531 137.875 C 1113.410156 136.476562 1113.714844 135.074219 1113.949219 133.664062 L 1114.40625 133.460938 Z M 45.085938 132.316406 L 55.097656 136.710938 L 55.492188 137.875 L 38.363281 137.875 L 41.300781 135.445312 Z M 847.996094 132.476562 L 849.09375 137.875 L 847.210938 137.875 L 843.011719 134.660156 Z M 1438.628906 132.632812 C 1438.675781 132.890625 1438.675781 133.148438 1438.695312 133.40625 C 1438.910156 134.917969 1439.222656 136.410156 1439.605469 137.875 L 1436.882812 137.875 Z M 620.160156 133.136719 L 621.113281 133.832031 C 621.4375 135.1875 621.773438 136.53125 622.132812 137.875 L 619.488281 137.875 C 619.8125 136.296875 620.050781 134.714844 620.160156 133.136719 Z M 1274.484375 133.238281 C 1274.140625 134.785156 1273.792969 136.320312 1273.476562 137.863281 L 1272.199219 137.863281 Z M 1130.636719 133.359375 L 1130.648438 133.359375 L 1140.933594 137.863281 L 1130.425781 137.863281 C 1130.617188 137.28125 1130.738281 136.644531 1130.636719 135.859375 C 1130.539062 135.007812 1130.570312 134.179688 1130.636719 133.359375 Z M 736.015625 133.941406 L 738.90625 137.863281 L 733.855469 137.863281 Z M 751.855469 133.941406 L 754.746094 137.863281 L 749.683594 137.863281 Z M 591.195312 134.449219 L 595.316406 137.863281 L 589.078125 137.863281 L 589.246094 137.058594 C 589.894531 136.183594 590.542969 135.320312 591.195312 134.457031 Z M 888.578125 135.1875 C 888.464844 136.082031 888.320312 136.96875 888.230469 137.863281 L 887.097656 137.863281 Z M 553.121094 135.46875 L 558.574219 137.863281 L 552.414062 137.863281 C 551.980469 137.71875 551.554688 137.550781 551.128906 137.394531 C 551.800781 136.753906 552.484375 136.140625 553.121094 135.46875 Z M 1291.847656 135.46875 L 1292.519531 135.960938 C 1292.507812 135.871094 1292.519531 135.792969 1292.519531 135.714844 L 1294.078125 137.863281 L 1291.566406 137.863281 Z M 449.890625 135.558594 C 450.382812 136.328125 450.910156 137.09375 451.414062 137.863281 L 446.867188 137.863281 C 447.90625 137.148438 448.925781 136.375 449.890625 135.558594 Z M 470.835938 136.003906 L 472.953125 136.933594 L 475.082031 137.863281 L 469.804688 137.863281 Z M 504.664062 136.117188 L 505.078125 137.863281 L 504.417969 137.863281 C 504.09375 137.664062 503.769531 137.449219 503.441406 137.25 C 503.847656 136.867188 504.261719 136.496094 504.664062 136.117188 Z M 1023.027344 136.308594 L 1023.351562 137.863281 L 1021.144531 137.863281 Z M 838.226562 136.746094 C 838.632812 137.113281 839.035156 137.496094 839.4375 137.863281 L 835.664062 137.863281 Z M 241.769531 136.824219 L 242.542969 137.875 L 241.1875 137.875 Z M 257.609375 136.824219 L 258.378906 137.875 L 257.027344 137.875 Z M 970.617188 136.824219 L 971.378906 137.875 L 970.035156 137.875 Z M 1231.292969 136.824219 L 1231.875 137.875 L 1230.519531 137.875 Z M 741.761719 137.269531 C 741.628906 137.472656 741.503906 137.675781 741.371094 137.875 L 738.960938 137.875 C 739.847656 137.628906 740.808594 137.382812 741.761719 137.269531 Z M 741.761719 137.269531 "/>
</g>
</svg>
